<?xml version="1.0" encoding="UTF-8" standalone="no"?>
<!DOCTYPE svg PUBLIC "-//W3C//DTD SVG 1.1//EN"
 "http://www.w3.org/Graphics/SVG/1.1/DTD/svg11.dtd">
<!-- Generated by graphviz version 2.47.0 (20210316.0004)
 -->
<!-- Pages: 1 -->
<svg width="99pt" height="281pt"
 viewBox="0.00 0.00 98.60 281.46" xmlns="http://www.w3.org/2000/svg" xmlns:xlink="http://www.w3.org/1999/xlink">
<g id="graph0" class="graph" transform="scale(1 1) rotate(0) translate(4 277.46)">
<polygon fill="white" stroke="transparent" points="-4,4 -4,-277.46 94.6,-277.46 94.6,4 -4,4"/>
<!-- x_1 -->
<g id="node1" class="node">
<title>x_1</title>
<polygon fill="lightgray" stroke="black" points="36.21,-264.08 6.21,-264.08 6.21,-246.08 36.21,-246.08 36.21,-264.08"/>
<text text-anchor="middle" x="21.21" y="-252.88" font-family="Times,serif" font-size="9.00">x_1</text>
</g>
<!-- 412 -->
<g id="node5" class="node">
<title>412</title>
<ellipse fill="white" stroke="black" cx="21.21" cy="-179.48" rx="21.43" ry="21.43"/>
<text text-anchor="middle" x="21.21" y="-177.28" font-family="Times,serif" font-size="9.00">412</text>
</g>
<!-- x_1&#45;&gt;412 -->
<g id="edge3" class="edge">
<title>x_1&#45;&gt;412</title>
<path fill="none" stroke="green" stroke-width="0.36" d="M21.21,-245.92C21.21,-237.5 21.21,-223.84 21.21,-211.18"/>
<polygon fill="green" stroke="green" stroke-width="0.36" points="24.71,-210.91 21.21,-200.91 17.71,-210.91 24.71,-210.91"/>
</g>
<!-- x_2 -->
<g id="node2" class="node">
<title>x_2</title>
<polygon fill="lightgray" stroke="black" points="90.21,-188.48 60.21,-188.48 60.21,-170.48 90.21,-170.48 90.21,-188.48"/>
<text text-anchor="middle" x="75.21" y="-177.28" font-family="Times,serif" font-size="9.00">x_2</text>
</g>
<!-- act_1 -->
<g id="node3" class="node">
<title>act_1</title>
<ellipse fill="lightblue" stroke="black" cx="52.21" cy="-24.75" rx="25" ry="25"/>
<text text-anchor="middle" x="52.21" y="-22.55" font-family="Times,serif" font-size="9.00">act_1</text>
</g>
<!-- x_2&#45;&gt;act_1 -->
<g id="edge5" class="edge">
<title>x_2&#45;&gt;act_1</title>
<path fill="none" stroke="red" stroke-width="0.15" d="M73.98,-170.27C70.89,-149.74 62.68,-95.27 57.28,-59.38"/>
<polygon fill="red" stroke="red" stroke-width="0.15" points="60.72,-58.71 55.77,-49.34 53.79,-59.75 60.72,-58.71"/>
</g>
<!-- 24 -->
<g id="node4" class="node">
<title>24</title>
<ellipse fill="white" stroke="black" cx="29.21" cy="-103.88" rx="18.27" ry="18.27"/>
<text text-anchor="middle" x="29.21" y="-101.68" font-family="Times,serif" font-size="9.00">24</text>
</g>
<!-- x_2&#45;&gt;24 -->
<g id="edge1" class="edge">
<title>x_2&#45;&gt;24</title>
<path fill="none" stroke="red" stroke-width="1" d="M70.11,-170.32C63.9,-160.38 53.11,-143.12 44.18,-128.83"/>
<polygon fill="red" stroke="red" stroke-width="1" points="46.91,-126.59 38.64,-119.97 40.97,-130.3 46.91,-126.59"/>
</g>
<!-- 24&#45;&gt;act_1 -->
<g id="edge2" class="edge">
<title>24&#45;&gt;act_1</title>
<path fill="none" stroke="red" stroke-width="0.55" d="M34.2,-86.15C36.64,-77.99 39.65,-67.89 42.51,-58.3"/>
<polygon fill="red" stroke="red" stroke-width="0.55" points="45.9,-59.18 45.4,-48.6 39.19,-57.18 45.9,-59.18"/>
</g>
<!-- 412&#45;&gt;24 -->
<g id="edge4" class="edge">
<title>412&#45;&gt;24</title>
<path fill="none" stroke="red" stroke-width="0.54" d="M23.4,-158.37C24.27,-150.38 25.28,-141.06 26.22,-132.46"/>
<polygon fill="red" stroke="red" stroke-width="0.54" points="29.7,-132.78 27.3,-122.46 22.74,-132.03 29.7,-132.78"/>
</g>
<!-- 41 -->
<g id="node6" class="node">
<title>41</title>
<ellipse fill="white" stroke="black" cx="72.21" cy="-255.08" rx="18.27" ry="18.27"/>
<text text-anchor="middle" x="72.21" y="-252.88" font-family="Times,serif" font-size="9.00">41</text>
</g>
</g>
</svg>
