<?xml version="1.0" encoding="UTF-8" standalone="no"?>
<!DOCTYPE svg PUBLIC "-//W3C//DTD SVG 1.1//EN"
 "http://www.w3.org/Graphics/SVG/1.1/DTD/svg11.dtd">
<!-- Generated by graphviz version 2.47.0 (20210316.0004)
 -->
<!-- Pages: 1 -->
<svg width="236pt" height="209pt"
 viewBox="0.00 0.00 235.60 208.69" xmlns="http://www.w3.org/2000/svg" xmlns:xlink="http://www.w3.org/1999/xlink">
<g id="graph0" class="graph" transform="scale(1 1) rotate(0) translate(4 204.69)">
<polygon fill="white" stroke="transparent" points="-4,4 -4,-204.69 231.6,-204.69 231.6,4 -4,4"/>
<!-- x_1 -->
<g id="node1" class="node">
<title>x_1</title>
<polygon fill="lightgray" stroke="black" points="88.38,-191.31 58.38,-191.31 58.38,-173.31 88.38,-173.31 88.38,-191.31"/>
<text text-anchor="middle" x="73.38" y="-180.11" font-family="Times,serif" font-size="9.00">x_1</text>
</g>
<!-- 22 -->
<g id="node6" class="node">
<title>22</title>
<ellipse fill="white" stroke="black" cx="18.38" cy="-106.71" rx="18.27" ry="18.27"/>
<text text-anchor="middle" x="18.38" y="-104.51" font-family="Times,serif" font-size="9.00">22</text>
</g>
<!-- x_1&#45;&gt;22 -->
<g id="edge1" class="edge">
<title>x_1&#45;&gt;22</title>
<path fill="none" stroke="green" stroke-width="0.28" d="M67.29,-173.15C59.57,-162.83 45.98,-144.63 35.07,-130.04"/>
<polygon fill="green" stroke="green" stroke-width="0.28" points="37.82,-127.87 29.03,-121.96 32.21,-132.06 37.82,-127.87"/>
</g>
<!-- 23 -->
<g id="node7" class="node">
<title>23</title>
<ellipse fill="white" stroke="black" cx="136.38" cy="-24.75" rx="18.27" ry="18.27"/>
<text text-anchor="middle" x="136.38" y="-22.55" font-family="Times,serif" font-size="9.00">23</text>
</g>
<!-- x_1&#45;&gt;23 -->
<g id="edge2" class="edge">
<title>x_1&#45;&gt;23</title>
<path fill="none" stroke="red" stroke-width="0.16" d="M77.93,-173.14C83.59,-162.8 93.37,-144.35 100.38,-127.92 111.12,-102.77 121.28,-73.22 128.05,-52.39"/>
<polygon fill="red" stroke="red" stroke-width="0.16" points="131.45,-53.23 131.18,-42.64 124.79,-51.09 131.45,-53.23"/>
</g>
<!-- 24 -->
<g id="node8" class="node">
<title>24</title>
<ellipse fill="white" stroke="black" cx="73.38" cy="-106.71" rx="18.27" ry="18.27"/>
<text text-anchor="middle" x="73.38" y="-104.51" font-family="Times,serif" font-size="9.00">24</text>
</g>
<!-- x_1&#45;&gt;24 -->
<g id="edge3" class="edge">
<title>x_1&#45;&gt;24</title>
<path fill="none" stroke="green" stroke-width="0.29" d="M73.38,-173.15C73.38,-164.06 73.38,-148.85 73.38,-135.38"/>
<polygon fill="green" stroke="green" stroke-width="0.29" points="76.88,-135.11 73.38,-125.11 69.88,-135.11 76.88,-135.11"/>
</g>
<!-- x_2 -->
<g id="node2" class="node">
<title>x_2</title>
<polygon fill="lightgray" stroke="black" points="37.38,-191.31 7.38,-191.31 7.38,-173.31 37.38,-173.31 37.38,-191.31"/>
<text text-anchor="middle" x="22.38" y="-180.11" font-family="Times,serif" font-size="9.00">x_2</text>
</g>
<!-- x_2&#45;&gt;22 -->
<g id="edge4" class="edge">
<title>x_2&#45;&gt;22</title>
<path fill="none" stroke="green" stroke-width="0.5" d="M21.94,-173.15C21.45,-164.06 20.62,-148.85 19.89,-135.38"/>
<polygon fill="green" stroke="green" stroke-width="0.5" points="23.37,-134.9 19.33,-125.11 16.38,-135.28 23.37,-134.9"/>
</g>
<!-- x_2&#45;&gt;24 -->
<g id="edge5" class="edge">
<title>x_2&#45;&gt;24</title>
<path fill="none" stroke="red" stroke-width="0.19" d="M28.04,-173.15C35.08,-162.99 47.41,-145.19 57.44,-130.72"/>
<polygon fill="red" stroke="red" stroke-width="0.19" points="60.5,-132.45 63.32,-122.23 54.75,-128.46 60.5,-132.45"/>
</g>
<!-- act_1 -->
<g id="node3" class="node">
<title>act_1</title>
<ellipse fill="lightblue" stroke="black" cx="55.38" cy="-24.75" rx="25" ry="25"/>
<text text-anchor="middle" x="55.38" y="-22.55" font-family="Times,serif" font-size="9.00">act_1</text>
</g>
<!-- 96 -->
<g id="node4" class="node">
<title>96</title>
<ellipse fill="white" stroke="black" cx="181.38" cy="-182.31" rx="18.27" ry="18.27"/>
<text text-anchor="middle" x="181.38" y="-180.11" font-family="Times,serif" font-size="9.00">96</text>
</g>
<!-- 130 -->
<g id="node5" class="node">
<title>130</title>
<ellipse fill="white" stroke="black" cx="206.38" cy="-106.71" rx="21.43" ry="21.43"/>
<text text-anchor="middle" x="206.38" y="-104.51" font-family="Times,serif" font-size="9.00">130</text>
</g>
<!-- 96&#45;&gt;130 -->
<g id="edge9" class="edge">
<title>96&#45;&gt;130</title>
<path fill="none" stroke="green" stroke-width="0.48" stroke-dasharray="1,5" d="M187.06,-164.61C189.88,-156.3 193.37,-146.02 196.61,-136.49"/>
<polygon fill="green" stroke="green" stroke-width="0.48" points="199.95,-137.54 199.85,-126.95 193.32,-135.29 199.95,-137.54"/>
</g>
<!-- 96&#45;&gt;23 -->
<g id="edge8" class="edge">
<title>96&#45;&gt;23</title>
<path fill="none" stroke="red" stroke-width="0.73" stroke-dasharray="1,5" d="M176.48,-164.36C168.67,-137.36 153.34,-84.36 144.06,-52.29"/>
<polygon fill="red" stroke="red" stroke-width="0.73" points="147.42,-51.31 141.28,-42.67 140.7,-53.25 147.42,-51.31"/>
</g>
<!-- 130&#45;&gt;23 -->
<g id="edge10" class="edge">
<title>130&#45;&gt;23</title>
<path fill="none" stroke="red" stroke-width="0.58" d="M192.89,-90.29C182.06,-77.93 166.75,-60.44 154.8,-46.78"/>
<polygon fill="red" stroke="red" stroke-width="0.58" points="157.43,-44.48 148.21,-39.26 152.16,-49.09 157.43,-44.48"/>
</g>
<!-- 22&#45;&gt;act_1 -->
<g id="edge6" class="edge">
<title>22&#45;&gt;act_1</title>
<path fill="none" stroke="green" stroke-width="0.32" d="M25.87,-89.53C30.23,-80.12 35.86,-67.94 41.04,-56.75"/>
<polygon fill="green" stroke="green" stroke-width="0.32" points="44.22,-58.21 45.24,-47.66 37.87,-55.27 44.22,-58.21"/>
</g>
<!-- 24&#45;&gt;act_1 -->
<g id="edge7" class="edge">
<title>24&#45;&gt;act_1</title>
<path fill="none" stroke="red" stroke-width="0.38" d="M69.48,-88.36C67.54,-79.75 65.13,-69.05 62.86,-58.94"/>
<polygon fill="red" stroke="red" stroke-width="0.38" points="66.26,-58.12 60.65,-49.13 59.43,-59.66 66.26,-58.12"/>
</g>
<!-- 24&#45;&gt;23 -->
<g id="edge11" class="edge">
<title>24&#45;&gt;23</title>
<path fill="none" stroke="red" stroke-width="0.23" d="M84.36,-91.78C93.88,-79.7 107.82,-62 118.88,-47.97"/>
<polygon fill="red" stroke="red" stroke-width="0.23" points="121.89,-49.81 125.33,-39.79 116.39,-45.47 121.89,-49.81"/>
</g>
</g>
</svg>
