<?xml version="1.0" encoding="UTF-8" standalone="no"?>
<!DOCTYPE svg PUBLIC "-//W3C//DTD SVG 1.1//EN"
 "http://www.w3.org/Graphics/SVG/1.1/DTD/svg11.dtd">
<!-- Generated by graphviz version 2.47.0 (20210316.0004)
 -->
<!-- Pages: 1 -->
<svg width="140pt" height="196pt"
 viewBox="0.00 0.00 140.38 195.97" xmlns="http://www.w3.org/2000/svg" xmlns:xlink="http://www.w3.org/1999/xlink">
<g id="graph0" class="graph" transform="scale(1 1) rotate(0) translate(4 191.97)">
<polygon fill="white" stroke="transparent" points="-4,4 -4,-191.97 136.38,-191.97 136.38,4 -4,4"/>
<!-- x_1 -->
<g id="node1" class="node">
<title>x_1</title>
<polygon fill="lightgray" stroke="black" points="30,-178.58 0,-178.58 0,-160.58 30,-160.58 30,-178.58"/>
<text text-anchor="middle" x="15" y="-167.38" font-family="Times,serif" font-size="9.00">x_1</text>
</g>
<!-- 2 -->
<g id="node4" class="node">
<title>2</title>
<ellipse fill="white" stroke="black" cx="63" cy="-100.35" rx="14.7" ry="14.7"/>
<text text-anchor="middle" x="63" y="-98.15" font-family="Times,serif" font-size="9.00">2</text>
</g>
<!-- x_1&#45;&gt;2 -->
<g id="edge1" class="edge">
<title>x_1&#45;&gt;2</title>
<path fill="none" stroke="red" stroke-width="0.38" d="M20.89,-160.34C27.8,-150.65 39.51,-134.24 48.83,-121.19"/>
<polygon fill="red" stroke="red" stroke-width="0.38" points="51.85,-122.98 54.82,-112.81 46.16,-118.91 51.85,-122.98"/>
</g>
<!-- x_2 -->
<g id="node2" class="node">
<title>x_2</title>
<polygon fill="lightgray" stroke="black" points="78,-178.58 48,-178.58 48,-160.58 78,-160.58 78,-178.58"/>
<text text-anchor="middle" x="63" y="-167.38" font-family="Times,serif" font-size="9.00">x_2</text>
</g>
<!-- x_2&#45;&gt;2 -->
<g id="edge2" class="edge">
<title>x_2&#45;&gt;2</title>
<path fill="none" stroke="green" stroke-width="0.54" d="M63,-160.34C63,-151.66 63,-137.59 63,-125.36"/>
<polygon fill="green" stroke="green" stroke-width="0.54" points="66.5,-125.28 63,-115.28 59.5,-125.28 66.5,-125.28"/>
</g>
<!-- act_1 -->
<g id="node3" class="node">
<title>act_1</title>
<ellipse fill="lightblue" stroke="black" cx="63" cy="-24.75" rx="25" ry="25"/>
<text text-anchor="middle" x="63" y="-22.55" font-family="Times,serif" font-size="9.00">act_1</text>
</g>
<!-- 2&#45;&gt;act_1 -->
<g id="edge3" class="edge">
<title>2&#45;&gt;act_1</title>
<path fill="none" stroke="green" stroke-width="0.82" d="M63,-85.16C63,-77.95 63,-68.86 63,-59.97"/>
<polygon fill="green" stroke="green" stroke-width="0.82" points="66.5,-59.75 63,-49.75 59.5,-59.75 66.5,-59.75"/>
</g>
<!-- 87 -->
<g id="node5" class="node">
<title>87</title>
<ellipse fill="white" stroke="black" cx="114" cy="-169.58" rx="18.27" ry="18.27"/>
<text text-anchor="middle" x="114" y="-167.38" font-family="Times,serif" font-size="9.00">87</text>
</g>
<!-- 87&#45;&gt;2 -->
<g id="edge4" class="edge">
<title>87&#45;&gt;2</title>
<path fill="none" stroke="green" stroke-width="0.35" stroke-dasharray="1,5" d="M103.18,-154.32C95.8,-144.59 85.93,-131.57 77.81,-120.88"/>
<polygon fill="green" stroke="green" stroke-width="0.35" points="80.6,-118.76 71.77,-112.9 75.02,-122.99 80.6,-118.76"/>
</g>
</g>
</svg>
