<?xml version="1.0" encoding="UTF-8" standalone="no"?>
<!DOCTYPE svg PUBLIC "-//W3C//DTD SVG 1.1//EN"
 "http://www.w3.org/Graphics/SVG/1.1/DTD/svg11.dtd">
<!-- Generated by graphviz version 2.47.0 (20210316.0004)
 -->
<!-- Pages: 1 -->
<svg width="184pt" height="347pt"
 viewBox="0.00 0.00 184.16 346.78" xmlns="http://www.w3.org/2000/svg" xmlns:xlink="http://www.w3.org/1999/xlink">
<g id="graph0" class="graph" transform="scale(1 1) rotate(0) translate(4 342.78)">
<polygon fill="white" stroke="transparent" points="-4,4 -4,-342.78 180.16,-342.78 180.16,4 -4,4"/>
<!-- x_1 -->
<g id="node1" class="node">
<title>x_1</title>
<polygon fill="lightgray" stroke="black" points="149.68,-338.78 119.68,-338.78 119.68,-320.78 149.68,-320.78 149.68,-338.78"/>
<text text-anchor="middle" x="134.68" y="-327.58" font-family="Times,serif" font-size="9.00">x_1</text>
</g>
<!-- 427 -->
<g id="node4" class="node">
<title>427</title>
<ellipse fill="white" stroke="black" cx="80.68" cy="-263.56" rx="21.43" ry="21.43"/>
<text text-anchor="middle" x="80.68" y="-261.36" font-family="Times,serif" font-size="9.00">427</text>
</g>
<!-- x_1&#45;&gt;427 -->
<g id="edge4" class="edge">
<title>x_1&#45;&gt;427</title>
<path fill="none" stroke="green" stroke-width="0.27" d="M127.84,-320.64C120.99,-312.5 110.11,-299.57 100.53,-288.17"/>
<polygon fill="green" stroke="green" stroke-width="0.27" points="102.97,-285.64 93.86,-280.24 97.62,-290.14 102.97,-285.64"/>
</g>
<!-- 123 -->
<g id="node6" class="node">
<title>123</title>
<ellipse fill="white" stroke="black" cx="140.68" cy="-263.56" rx="21.43" ry="21.43"/>
<text text-anchor="middle" x="140.68" y="-261.36" font-family="Times,serif" font-size="9.00">123</text>
</g>
<!-- x_1&#45;&gt;123 -->
<g id="edge1" class="edge">
<title>x_1&#45;&gt;123</title>
<path fill="none" stroke="red" stroke-width="0.22" d="M135.44,-320.64C136.05,-314.05 136.96,-304.33 137.85,-294.82"/>
<polygon fill="red" stroke="red" stroke-width="0.22" points="141.35,-295.03 138.79,-284.74 134.38,-294.38 141.35,-295.03"/>
</g>
<!-- x_2 -->
<g id="node2" class="node">
<title>x_2</title>
<polygon fill="lightgray" stroke="black" points="95.68,-338.78 65.68,-338.78 65.68,-320.78 95.68,-320.78 95.68,-338.78"/>
<text text-anchor="middle" x="80.68" y="-327.58" font-family="Times,serif" font-size="9.00">x_2</text>
</g>
<!-- x_2&#45;&gt;427 -->
<g id="edge6" class="edge">
<title>x_2&#45;&gt;427</title>
<path fill="none" stroke="red" stroke-width="0.59" d="M80.68,-320.64C80.68,-314.1 80.68,-304.47 80.68,-295.03"/>
<polygon fill="red" stroke="red" stroke-width="0.59" points="84.18,-295.02 80.68,-285.02 77.18,-295.02 84.18,-295.02"/>
</g>
<!-- act_1 -->
<g id="node3" class="node">
<title>act_1</title>
<ellipse fill="lightblue" stroke="black" cx="137.68" cy="-181.6" rx="25" ry="25"/>
<text text-anchor="middle" x="137.68" y="-179.4" font-family="Times,serif" font-size="9.00">act_1</text>
</g>
<!-- 427&#45;&gt;act_1 -->
<g id="edge5" class="edge">
<title>427&#45;&gt;act_1</title>
<path fill="none" stroke="green" stroke-width="0.63" d="M92.77,-245.61C100.02,-235.42 109.44,-222.22 117.77,-210.53"/>
<polygon fill="green" stroke="green" stroke-width="0.63" points="120.64,-212.53 123.6,-202.35 114.94,-208.47 120.64,-212.53"/>
</g>
<!-- 563 -->
<g id="node5" class="node">
<title>563</title>
<ellipse fill="white" stroke="black" cx="35.68" cy="-99.64" rx="21.43" ry="21.43"/>
<text text-anchor="middle" x="35.68" y="-97.44" font-family="Times,serif" font-size="9.00">563</text>
</g>
<!-- 427&#45;&gt;563 -->
<g id="edge8" class="edge">
<title>427&#45;&gt;563</title>
<path fill="none" stroke="red" stroke-width="0.13" stroke-dasharray="1,5" d="M61.52,-254.43C43.38,-245.57 17.25,-229.49 5.68,-206.35 -7.24,-180.52 5.61,-148.28 18.27,-126.24"/>
<polygon fill="red" stroke="red" stroke-width="0.13" points="21.4,-127.82 23.61,-117.46 15.42,-124.19 21.4,-127.82"/>
</g>
<!-- 734 -->
<g id="node7" class="node">
<title>734</title>
<ellipse fill="white" stroke="black" cx="35.68" cy="-181.6" rx="21.43" ry="21.43"/>
<text text-anchor="middle" x="35.68" y="-179.4" font-family="Times,serif" font-size="9.00">734</text>
</g>
<!-- 427&#45;&gt;734 -->
<g id="edge10" class="edge">
<title>427&#45;&gt;734</title>
<path fill="none" stroke="green" stroke-width="0.39" d="M70.69,-244.82C64.85,-234.43 57.35,-221.12 50.8,-209.47"/>
<polygon fill="green" stroke="green" stroke-width="0.39" points="53.75,-207.57 45.79,-200.57 47.65,-211.01 53.75,-207.57"/>
</g>
<!-- 351 -->
<g id="node8" class="node">
<title>351</title>
<ellipse fill="white" stroke="black" cx="84.68" cy="-21.21" rx="21.43" ry="21.43"/>
<text text-anchor="middle" x="84.68" y="-19.01" font-family="Times,serif" font-size="9.00">351</text>
</g>
<!-- 427&#45;&gt;351 -->
<g id="edge7" class="edge">
<title>427&#45;&gt;351</title>
<path fill="none" stroke="red" stroke-width="0.2" stroke-dasharray="1,5" d="M81.02,-242.07C81.72,-199.77 83.34,-102.57 84.17,-52.8"/>
<polygon fill="red" stroke="red" stroke-width="0.2" points="87.67,-52.71 84.34,-42.65 80.67,-52.59 87.67,-52.71"/>
</g>
<!-- 563&#45;&gt;351 -->
<g id="edge9" class="edge">
<title>563&#45;&gt;351</title>
<path fill="none" stroke="red" stroke-width="0.44" d="M46.8,-81.3C53.06,-71.53 61.01,-59.13 68.01,-48.21"/>
<polygon fill="red" stroke="red" stroke-width="0.44" points="71.15,-49.79 73.6,-39.49 65.26,-46.02 71.15,-49.79"/>
</g>
<!-- 123&#45;&gt;act_1 -->
<g id="edge2" class="edge">
<title>123&#45;&gt;act_1</title>
<path fill="none" stroke="green" stroke-width="0.26" d="M139.91,-241.97C139.62,-234.27 139.28,-225.31 138.96,-216.72"/>
<polygon fill="green" stroke="green" stroke-width="0.26" points="142.45,-216.39 138.58,-206.53 135.45,-216.65 142.45,-216.39"/>
</g>
<!-- 123&#45;&gt;351 -->
<g id="edge3" class="edge">
<title>123&#45;&gt;351</title>
<path fill="none" stroke="green" stroke-width="0.69" d="M152.87,-245.8C159.88,-235.1 168.01,-220.6 171.68,-206.35 177.16,-185.05 177.9,-177.95 171.68,-156.85 158.8,-113.21 126.88,-70.39 105.5,-45.14"/>
<polygon fill="green" stroke="green" stroke-width="0.69" points="107.88,-42.55 98.69,-37.28 102.59,-47.13 107.88,-42.55"/>
</g>
<!-- 734&#45;&gt;563 -->
<g id="edge11" class="edge">
<title>734&#45;&gt;563</title>
<path fill="none" stroke="red" stroke-width="0.41" d="M35.68,-160.01C35.68,-151.17 35.68,-140.67 35.68,-130.97"/>
<polygon fill="red" stroke="red" stroke-width="0.41" points="39.18,-130.89 35.68,-120.89 32.18,-130.89 39.18,-130.89"/>
</g>
</g>
</svg>
