<?xml version="1.0" encoding="UTF-8" standalone="no"?>
<!DOCTYPE svg PUBLIC "-//W3C//DTD SVG 1.1//EN"
 "http://www.w3.org/Graphics/SVG/1.1/DTD/svg11.dtd">
<!-- Generated by graphviz version 2.47.0 (20210316.0004)
 -->
<!-- Pages: 1 -->
<svg width="231pt" height="481pt"
 viewBox="0.00 0.00 231.22 481.00" xmlns="http://www.w3.org/2000/svg" xmlns:xlink="http://www.w3.org/1999/xlink">
<g id="graph0" class="graph" transform="scale(1 1) rotate(0) translate(4 477)">
<polygon fill="white" stroke="transparent" points="-4,4 -4,-477 227.22,-477 227.22,4 -4,4"/>
<!-- x_1 -->
<g id="node1" class="node">
<title>x_1</title>
<polygon fill="lightgray" stroke="black" points="84.54,-473 54.54,-473 54.54,-455 84.54,-455 84.54,-473"/>
<text text-anchor="middle" x="69.54" y="-461.8" font-family="Times,serif" font-size="9.00">x_1</text>
</g>
<!-- 16 -->
<g id="node4" class="node">
<title>16</title>
<ellipse fill="white" stroke="black" cx="66.54" cy="-103.88" rx="18.27" ry="18.27"/>
<text text-anchor="middle" x="66.54" y="-101.68" font-family="Times,serif" font-size="9.00">16</text>
</g>
<!-- x_1&#45;&gt;16 -->
<g id="edge1" class="edge">
<title>x_1&#45;&gt;16</title>
<path fill="none" stroke="green" stroke-width="0.11" stroke-dasharray="1,5" d="M56.3,-454.95C44.75,-447.2 28.47,-434.41 19.54,-419 -1.62,-382.51 0.54,-368.2 0.54,-326.02 0.54,-326.02 0.54,-326.02 0.54,-248.42 0.54,-201.85 29.58,-153.91 49.13,-126.9"/>
<polygon fill="green" stroke="green" stroke-width="0.11" points="52.17,-128.69 55.34,-118.58 46.56,-124.5 52.17,-128.69"/>
</g>
<!-- 17 -->
<g id="node5" class="node">
<title>17</title>
<ellipse fill="white" stroke="black" cx="174.54" cy="-249.42" rx="18.27" ry="18.27"/>
<text text-anchor="middle" x="174.54" y="-247.22" font-family="Times,serif" font-size="9.00">17</text>
</g>
<!-- x_1&#45;&gt;17 -->
<g id="edge2" class="edge">
<title>x_1&#45;&gt;17</title>
<path fill="none" stroke="red" stroke-width="0.34" d="M85.02,-456.5C116.93,-442.12 189.41,-404.25 217.54,-346.23 225.76,-329.27 223.81,-321.59 217.54,-303.81 212.96,-290.83 203.75,-278.68 195.02,-269.27"/>
<polygon fill="red" stroke="red" stroke-width="0.34" points="197.42,-266.72 187.91,-262.04 192.43,-271.62 197.42,-266.72"/>
</g>
<!-- 18 -->
<g id="node6" class="node">
<title>18</title>
<ellipse fill="white" stroke="black" cx="46.54" cy="-400.62" rx="18.27" ry="18.27"/>
<text text-anchor="middle" x="46.54" y="-398.42" font-family="Times,serif" font-size="9.00">18</text>
</g>
<!-- x_1&#45;&gt;18 -->
<g id="edge3" class="edge">
<title>x_1&#45;&gt;18</title>
<path fill="none" stroke="red" stroke-width="0.29" d="M66.53,-454.98C63.92,-448.01 59.99,-437.51 56.3,-427.67"/>
<polygon fill="red" stroke="red" stroke-width="0.29" points="59.54,-426.33 52.75,-418.2 52.98,-428.79 59.54,-426.33"/>
</g>
<!-- 19 -->
<g id="node7" class="node">
<title>19</title>
<ellipse fill="white" stroke="black" cx="128.54" cy="-176.65" rx="18.27" ry="18.27"/>
<text text-anchor="middle" x="128.54" y="-174.45" font-family="Times,serif" font-size="9.00">19</text>
</g>
<!-- x_1&#45;&gt;19 -->
<g id="edge4" class="edge">
<title>x_1&#45;&gt;19</title>
<path fill="none" stroke="red" stroke-width="0.27" d="M71.24,-454.77C78.87,-417.88 110.08,-266.92 122.95,-204.68"/>
<polygon fill="red" stroke="red" stroke-width="0.27" points="126.39,-205.3 124.99,-194.8 119.54,-203.89 126.39,-205.3"/>
</g>
<!-- x_2 -->
<g id="node2" class="node">
<title>x_2</title>
<polygon fill="lightgray" stroke="black" points="148.54,-334.02 118.54,-334.02 118.54,-316.02 148.54,-316.02 148.54,-334.02"/>
<text text-anchor="middle" x="133.54" y="-322.82" font-family="Times,serif" font-size="9.00">x_2</text>
</g>
<!-- x_2&#45;&gt;17 -->
<g id="edge5" class="edge">
<title>x_2&#45;&gt;17</title>
<path fill="none" stroke="red" stroke-width="0.35" d="M138.08,-315.86C143.59,-305.98 153.12,-288.87 161.05,-274.63"/>
<polygon fill="red" stroke="red" stroke-width="0.35" points="164.17,-276.23 165.98,-265.79 158.05,-272.82 164.17,-276.23"/>
</g>
<!-- x_2&#45;&gt;19 -->
<g id="edge6" class="edge">
<title>x_2&#45;&gt;19</title>
<path fill="none" stroke="red" stroke-width="0.35" d="M133.26,-315.73C132.54,-294.83 130.64,-239.23 129.48,-205.3"/>
<polygon fill="red" stroke="red" stroke-width="0.35" points="132.97,-204.99 129.14,-195.12 125.98,-205.23 132.97,-204.99"/>
</g>
<!-- act_1 -->
<g id="node3" class="node">
<title>act_1</title>
<ellipse fill="lightblue" stroke="black" cx="151.54" cy="-24.75" rx="25" ry="25"/>
<text text-anchor="middle" x="151.54" y="-22.55" font-family="Times,serif" font-size="9.00">act_1</text>
</g>
<!-- 16&#45;&gt;act_1 -->
<g id="edge7" class="edge">
<title>16&#45;&gt;act_1</title>
<path fill="none" stroke="green" stroke-width="0.29" d="M79.82,-90.83C92.15,-79.64 110.83,-62.69 126.03,-48.89"/>
<polygon fill="green" stroke="green" stroke-width="0.29" points="128.56,-51.32 133.62,-42.01 123.86,-46.14 128.56,-51.32"/>
</g>
<!-- 17&#45;&gt;act_1 -->
<g id="edge8" class="edge">
<title>17&#45;&gt;act_1</title>
<path fill="none" stroke="red" stroke-width="0.69" d="M172.73,-230.95C168.93,-194.16 160.05,-108.13 155.07,-59.97"/>
<polygon fill="red" stroke="red" stroke-width="0.69" points="158.52,-59.31 154.01,-49.72 151.56,-60.03 158.52,-59.31"/>
</g>
<!-- 17&#45;&gt;19 -->
<g id="edge11" class="edge">
<title>17&#45;&gt;19</title>
<path fill="none" stroke="green" stroke-width="0.39" d="M164.78,-233.41C158.68,-224.03 150.7,-211.75 143.78,-201.1"/>
<polygon fill="green" stroke="green" stroke-width="0.39" points="146.66,-199.12 138.28,-192.64 140.8,-202.93 146.66,-199.12"/>
</g>
<!-- 18&#45;&gt;16 -->
<g id="edge12" class="edge">
<title>18&#45;&gt;16</title>
<path fill="none" stroke="green" stroke-width="0.16" d="M47.73,-382.06C51.08,-332.71 60.6,-192.46 64.66,-132.55"/>
<polygon fill="green" stroke="green" stroke-width="0.16" points="68.17,-132.56 65.35,-122.34 61.18,-132.08 68.17,-132.56"/>
</g>
<!-- 476 -->
<g id="node8" class="node">
<title>476</title>
<ellipse fill="white" stroke="black" cx="187.54" cy="-325.02" rx="21.43" ry="21.43"/>
<text text-anchor="middle" x="187.54" y="-322.82" font-family="Times,serif" font-size="9.00">476</text>
</g>
<!-- 18&#45;&gt;476 -->
<g id="edge13" class="edge">
<title>18&#45;&gt;476</title>
<path fill="none" stroke="green" stroke-width="0.22" d="M63.09,-392.56C85.12,-382.96 125.07,-364.85 157.54,-346.23 159.04,-345.37 160.56,-344.47 162.08,-343.53"/>
<polygon fill="green" stroke="green" stroke-width="0.22" points="164.16,-346.36 170.68,-338 160.37,-340.47 164.16,-346.36"/>
</g>
<!-- 19&#45;&gt;act_1 -->
<g id="edge9" class="edge">
<title>19&#45;&gt;act_1</title>
<path fill="none" stroke="green" stroke-width="0.69" d="M131.18,-158.46C134.86,-134.45 141.62,-90.38 146.34,-59.64"/>
<polygon fill="green" stroke="green" stroke-width="0.69" points="149.86,-59.79 147.91,-49.37 142.94,-58.73 149.86,-59.79"/>
</g>
<!-- 19&#45;&gt;16 -->
<g id="edge10" class="edge">
<title>19&#45;&gt;16</title>
<path fill="none" stroke="green" stroke-width="0.57" d="M116.88,-162.34C107.98,-152.19 95.56,-138.01 85.28,-126.27"/>
<polygon fill="green" stroke="green" stroke-width="0.57" points="87.79,-123.83 78.57,-118.62 82.53,-128.44 87.79,-123.83"/>
</g>
<!-- 476&#45;&gt;act_1 -->
<g id="edge14" class="edge">
<title>476&#45;&gt;act_1</title>
<path fill="none" stroke="red" stroke-width="0.13" d="M193.66,-304.47C196.69,-293.76 200.02,-280.18 201.54,-267.81 203.53,-251.59 203.14,-247.3 201.54,-231.04 195.06,-165.4 189.96,-149.11 172.54,-85.5 170.05,-76.41 166.87,-66.7 163.75,-57.82"/>
<polygon fill="red" stroke="red" stroke-width="0.13" points="166.96,-56.43 160.28,-48.21 160.38,-58.8 166.96,-56.43"/>
</g>
<!-- 476&#45;&gt;17 -->
<g id="edge15" class="edge">
<title>476&#45;&gt;17</title>
<path fill="none" stroke="red" stroke-width="0.15" d="M183.99,-303.91C182.58,-295.92 180.93,-286.6 179.41,-278"/>
<polygon fill="red" stroke="red" stroke-width="0.15" points="182.83,-277.24 177.64,-268 175.94,-278.46 182.83,-277.24"/>
</g>
</g>
</svg>
