<?xml version="1.0" encoding="UTF-8" standalone="no"?>
<!DOCTYPE svg PUBLIC "-//W3C//DTD SVG 1.1//EN"
 "http://www.w3.org/Graphics/SVG/1.1/DTD/svg11.dtd">
<!-- Generated by graphviz version 2.47.0 (20210316.0004)
 -->
<!-- Pages: 1 -->
<svg width="134pt" height="177pt"
 viewBox="0.00 0.00 133.70 177.20" xmlns="http://www.w3.org/2000/svg" xmlns:xlink="http://www.w3.org/1999/xlink">
<g id="graph0" class="graph" transform="scale(1 1) rotate(0) translate(4 173.2)">
<polygon fill="white" stroke="transparent" points="-4,4 -4,-173.2 129.7,-173.2 129.7,4 -4,4"/>
<!-- x_1 -->
<g id="node1" class="node">
<title>x_1</title>
<polygon fill="lightgray" stroke="black" points="53.85,-169.2 23.85,-169.2 23.85,-151.2 53.85,-151.2 53.85,-169.2"/>
<text text-anchor="middle" x="38.85" y="-158" font-family="Times,serif" font-size="9.00">x_1</text>
</g>
<!-- 1 -->
<g id="node4" class="node">
<title>1</title>
<ellipse fill="white" stroke="black" cx="14.85" cy="-100.35" rx="14.7" ry="14.7"/>
<text text-anchor="middle" x="14.85" y="-98.15" font-family="Times,serif" font-size="9.00">1</text>
</g>
<!-- x_1&#45;&gt;1 -->
<g id="edge1" class="edge">
<title>x_1&#45;&gt;1</title>
<path fill="none" stroke="red" stroke-width="0.35" d="M35.51,-151.15C32.57,-144.06 28.13,-133.37 24.13,-123.71"/>
<polygon fill="red" stroke="red" stroke-width="0.35" points="27.25,-122.11 20.19,-114.21 20.79,-124.79 27.25,-122.11"/>
</g>
<!-- 2 -->
<g id="node5" class="node">
<title>2</title>
<ellipse fill="white" stroke="black" cx="62.85" cy="-100.35" rx="14.7" ry="14.7"/>
<text text-anchor="middle" x="62.85" y="-98.15" font-family="Times,serif" font-size="9.00">2</text>
</g>
<!-- x_1&#45;&gt;2 -->
<g id="edge2" class="edge">
<title>x_1&#45;&gt;2</title>
<path fill="none" stroke="red" stroke-width="0.15" d="M42.19,-151.15C45.13,-144.06 49.56,-133.37 53.57,-123.71"/>
<polygon fill="red" stroke="red" stroke-width="0.15" points="56.91,-124.79 57.51,-114.21 50.45,-122.11 56.91,-124.79"/>
</g>
<!-- 3 -->
<g id="node6" class="node">
<title>3</title>
<ellipse fill="white" stroke="black" cx="110.85" cy="-100.35" rx="14.7" ry="14.7"/>
<text text-anchor="middle" x="110.85" y="-98.15" font-family="Times,serif" font-size="9.00">3</text>
</g>
<!-- x_1&#45;&gt;3 -->
<g id="edge3" class="edge">
<title>x_1&#45;&gt;3</title>
<path fill="none" stroke="green" stroke-width="0.28" d="M48.86,-151.15C59.87,-142.31 77.82,-127.89 91.57,-116.83"/>
<polygon fill="green" stroke="green" stroke-width="0.28" points="93.9,-119.46 99.5,-110.47 89.51,-114 93.9,-119.46"/>
</g>
<!-- x_2 -->
<g id="node2" class="node">
<title>x_2</title>
<polygon fill="lightgray" stroke="black" points="101.85,-169.2 71.85,-169.2 71.85,-151.2 101.85,-151.2 101.85,-169.2"/>
<text text-anchor="middle" x="86.85" y="-158" font-family="Times,serif" font-size="9.00">x_2</text>
</g>
<!-- x_2&#45;&gt;1 -->
<g id="edge4" class="edge">
<title>x_2&#45;&gt;1</title>
<path fill="none" stroke="green" stroke-width="0.22" d="M76.84,-151.15C65.83,-142.31 47.88,-127.89 34.12,-116.83"/>
<polygon fill="green" stroke="green" stroke-width="0.22" points="36.19,-114 26.2,-110.47 31.8,-119.46 36.19,-114"/>
</g>
<!-- x_2&#45;&gt;2 -->
<g id="edge5" class="edge">
<title>x_2&#45;&gt;2</title>
<path fill="none" stroke="red" stroke-width="0.41" d="M83.51,-151.15C80.57,-144.06 76.13,-133.37 72.13,-123.71"/>
<polygon fill="red" stroke="red" stroke-width="0.41" points="75.25,-122.11 68.19,-114.21 68.79,-124.79 75.25,-122.11"/>
</g>
<!-- x_2&#45;&gt;3 -->
<g id="edge6" class="edge">
<title>x_2&#45;&gt;3</title>
<path fill="none" stroke="red" stroke-width="0.31" d="M90.19,-151.15C93.13,-144.06 97.56,-133.37 101.57,-123.71"/>
<polygon fill="red" stroke="red" stroke-width="0.31" points="104.91,-124.79 105.51,-114.21 98.45,-122.11 104.91,-124.79"/>
</g>
<!-- act_1 -->
<g id="node3" class="node">
<title>act_1</title>
<ellipse fill="lightblue" stroke="black" cx="62.85" cy="-24.75" rx="25" ry="25"/>
<text text-anchor="middle" x="62.85" y="-22.55" font-family="Times,serif" font-size="9.00">act_1</text>
</g>
<!-- 1&#45;&gt;act_1 -->
<g id="edge7" class="edge">
<title>1&#45;&gt;act_1</title>
<path fill="none" stroke="red" stroke-width="0.12" d="M22.56,-87.52C28.39,-78.59 36.65,-65.93 44.17,-54.39"/>
<polygon fill="red" stroke="red" stroke-width="0.12" points="47.19,-56.16 49.72,-45.87 41.33,-52.34 47.19,-56.16"/>
</g>
<!-- 2&#45;&gt;act_1 -->
<g id="edge8" class="edge">
<title>2&#45;&gt;act_1</title>
<path fill="none" stroke="green" stroke-width="0.11" d="M62.85,-85.16C62.85,-77.95 62.85,-68.86 62.85,-59.97"/>
<polygon fill="green" stroke="green" stroke-width="0.11" points="66.35,-59.75 62.85,-49.75 59.35,-59.75 66.35,-59.75"/>
</g>
<!-- 3&#45;&gt;act_1 -->
<g id="edge9" class="edge">
<title>3&#45;&gt;act_1</title>
<path fill="none" stroke="green" stroke-width="0.27" d="M103.14,-87.52C97.31,-78.59 89.05,-65.93 81.53,-54.39"/>
<polygon fill="green" stroke="green" stroke-width="0.27" points="84.37,-52.34 75.98,-45.87 78.51,-56.16 84.37,-52.34"/>
</g>
</g>
</svg>
