<?xml version="1.0" encoding="UTF-8" standalone="no"?>
<!DOCTYPE svg PUBLIC "-//W3C//DTD SVG 1.1//EN"
 "http://www.w3.org/Graphics/SVG/1.1/DTD/svg11.dtd">
<!-- Generated by graphviz version 2.47.0 (20210316.0004)
 -->
<!-- Pages: 1 -->
<svg width="182pt" height="177pt"
 viewBox="0.00 0.00 181.70 177.20" xmlns="http://www.w3.org/2000/svg" xmlns:xlink="http://www.w3.org/1999/xlink">
<g id="graph0" class="graph" transform="scale(1 1) rotate(0) translate(4 173.2)">
<polygon fill="white" stroke="transparent" points="-4,4 -4,-173.2 177.7,-173.2 177.7,4 -4,4"/>
<!-- x_1 -->
<g id="node1" class="node">
<title>x_1</title>
<polygon fill="lightgray" stroke="black" points="77.85,-169.2 47.85,-169.2 47.85,-151.2 77.85,-151.2 77.85,-169.2"/>
<text text-anchor="middle" x="62.85" y="-158" font-family="Times,serif" font-size="9.00">x_1</text>
</g>
<!-- 1 -->
<g id="node4" class="node">
<title>1</title>
<ellipse fill="white" stroke="black" cx="110.85" cy="-100.35" rx="14.7" ry="14.7"/>
<text text-anchor="middle" x="110.85" y="-98.15" font-family="Times,serif" font-size="9.00">1</text>
</g>
<!-- x_1&#45;&gt;1 -->
<g id="edge1" class="edge">
<title>x_1&#45;&gt;1</title>
<path fill="none" stroke="green" stroke-width="0.17" d="M69.52,-151.15C76.11,-143.22 86.42,-130.79 95.1,-120.33"/>
<polygon fill="green" stroke="green" stroke-width="0.17" points="97.91,-122.42 101.6,-112.49 92.52,-117.95 97.91,-122.42"/>
</g>
<!-- 2 -->
<g id="node5" class="node">
<title>2</title>
<ellipse fill="white" stroke="black" cx="158.85" cy="-100.35" rx="14.7" ry="14.7"/>
<text text-anchor="middle" x="158.85" y="-98.15" font-family="Times,serif" font-size="9.00">2</text>
</g>
<!-- x_1&#45;&gt;2 -->
<g id="edge2" class="edge">
<title>x_1&#45;&gt;2</title>
<path fill="none" stroke="red" stroke-width="0.24" d="M76.2,-151.15C92.15,-141.54 119.04,-125.33 137.81,-114.03"/>
<polygon fill="red" stroke="red" stroke-width="0.24" points="139.77,-116.93 146.53,-108.77 136.15,-110.94 139.77,-116.93"/>
</g>
<!-- 3 -->
<g id="node6" class="node">
<title>3</title>
<ellipse fill="white" stroke="black" cx="14.85" cy="-100.35" rx="14.7" ry="14.7"/>
<text text-anchor="middle" x="14.85" y="-98.15" font-family="Times,serif" font-size="9.00">3</text>
</g>
<!-- x_1&#45;&gt;3 -->
<g id="edge3" class="edge">
<title>x_1&#45;&gt;3</title>
<path fill="none" stroke="green" stroke-width="0.14" d="M56.18,-151.15C49.59,-143.22 39.28,-130.79 30.6,-120.33"/>
<polygon fill="green" stroke="green" stroke-width="0.14" points="33.18,-117.95 24.1,-112.49 27.79,-122.42 33.18,-117.95"/>
</g>
<!-- 4 -->
<g id="node7" class="node">
<title>4</title>
<ellipse fill="white" stroke="black" cx="62.85" cy="-100.35" rx="14.7" ry="14.7"/>
<text text-anchor="middle" x="62.85" y="-98.15" font-family="Times,serif" font-size="9.00">4</text>
</g>
<!-- x_1&#45;&gt;4 -->
<g id="edge4" class="edge">
<title>x_1&#45;&gt;4</title>
<path fill="none" stroke="green" stroke-width="0.17" d="M62.85,-151.15C62.85,-144.55 62.85,-134.83 62.85,-125.73"/>
<polygon fill="green" stroke="green" stroke-width="0.17" points="66.35,-125.55 62.85,-115.55 59.35,-125.55 66.35,-125.55"/>
</g>
<!-- x_2 -->
<g id="node2" class="node">
<title>x_2</title>
<polygon fill="lightgray" stroke="black" points="125.85,-169.2 95.85,-169.2 95.85,-151.2 125.85,-151.2 125.85,-169.2"/>
<text text-anchor="middle" x="110.85" y="-158" font-family="Times,serif" font-size="9.00">x_2</text>
</g>
<!-- x_2&#45;&gt;1 -->
<g id="edge5" class="edge">
<title>x_2&#45;&gt;1</title>
<path fill="none" stroke="green" stroke-width="0.29" d="M110.85,-151.15C110.85,-144.55 110.85,-134.83 110.85,-125.73"/>
<polygon fill="green" stroke="green" stroke-width="0.29" points="114.35,-125.55 110.85,-115.55 107.35,-125.55 114.35,-125.55"/>
</g>
<!-- x_2&#45;&gt;2 -->
<g id="edge6" class="edge">
<title>x_2&#45;&gt;2</title>
<path fill="none" stroke="green" stroke-width="0.53" d="M117.52,-151.15C124.11,-143.22 134.42,-130.79 143.1,-120.33"/>
<polygon fill="green" stroke="green" stroke-width="0.53" points="145.91,-122.42 149.6,-112.49 140.52,-117.95 145.91,-122.42"/>
</g>
<!-- x_2&#45;&gt;3 -->
<g id="edge7" class="edge">
<title>x_2&#45;&gt;3</title>
<path fill="none" stroke="red" stroke-width="0.29" d="M97.5,-151.15C81.55,-141.54 54.65,-125.33 35.89,-114.03"/>
<polygon fill="red" stroke="red" stroke-width="0.29" points="37.54,-110.94 27.17,-108.77 33.93,-116.93 37.54,-110.94"/>
</g>
<!-- x_2&#45;&gt;4 -->
<g id="edge8" class="edge">
<title>x_2&#45;&gt;4</title>
<path fill="none" stroke="red" stroke-width="0.27" d="M104.18,-151.15C97.59,-143.22 87.28,-130.79 78.6,-120.33"/>
<polygon fill="red" stroke="red" stroke-width="0.27" points="81.18,-117.95 72.1,-112.49 75.79,-122.42 81.18,-117.95"/>
</g>
<!-- act_1 -->
<g id="node3" class="node">
<title>act_1</title>
<ellipse fill="lightblue" stroke="black" cx="86.85" cy="-24.75" rx="25" ry="25"/>
<text text-anchor="middle" x="86.85" y="-22.55" font-family="Times,serif" font-size="9.00">act_1</text>
</g>
<!-- 1&#45;&gt;act_1 -->
<g id="edge9" class="edge">
<title>1&#45;&gt;act_1</title>
<path fill="none" stroke="green" stroke-width="0.22" d="M106.45,-85.85C103.89,-78 100.55,-67.76 97.35,-57.96"/>
<polygon fill="green" stroke="green" stroke-width="0.22" points="100.67,-56.83 94.24,-48.41 94.01,-59 100.67,-56.83"/>
</g>
<!-- 2&#45;&gt;act_1 -->
<g id="edge10" class="edge">
<title>2&#45;&gt;act_1</title>
<path fill="none" stroke="green" stroke-width="0.36" d="M148.84,-89.11C139.08,-79.14 123.88,-63.6 110.97,-50.4"/>
<polygon fill="green" stroke="green" stroke-width="0.36" points="113.19,-47.66 103.69,-42.96 108.18,-52.56 113.19,-47.66"/>
</g>
<!-- 3&#45;&gt;act_1 -->
<g id="edge11" class="edge">
<title>3&#45;&gt;act_1</title>
<path fill="none" stroke="red" stroke-width="0.19" d="M24.86,-89.11C34.62,-79.14 49.82,-63.6 62.73,-50.4"/>
<polygon fill="red" stroke="red" stroke-width="0.19" points="65.52,-52.56 70.01,-42.96 60.51,-47.66 65.52,-52.56"/>
</g>
<!-- 4&#45;&gt;act_1 -->
<g id="edge12" class="edge">
<title>4&#45;&gt;act_1</title>
<path fill="none" stroke="green" stroke-width="0.14" d="M67.25,-85.85C69.81,-78 73.15,-67.76 76.34,-57.96"/>
<polygon fill="green" stroke="green" stroke-width="0.14" points="79.69,-59 79.46,-48.41 73.03,-56.83 79.69,-59"/>
</g>
</g>
</svg>
