<?xml version="1.0" encoding="UTF-8" standalone="no"?>
<!DOCTYPE svg PUBLIC "-//W3C//DTD SVG 1.1//EN"
 "http://www.w3.org/Graphics/SVG/1.1/DTD/svg11.dtd">
<!-- Generated by graphviz version 2.47.0 (20210316.0004)
 -->
<!-- Pages: 1 -->
<svg width="86pt" height="177pt"
 viewBox="0.00 0.00 86.00 177.20" xmlns="http://www.w3.org/2000/svg" xmlns:xlink="http://www.w3.org/1999/xlink">
<g id="graph0" class="graph" transform="scale(1 1) rotate(0) translate(4 173.2)">
<polygon fill="white" stroke="transparent" points="-4,4 -4,-173.2 82,-173.2 82,4 -4,4"/>
<!-- x_1 -->
<g id="node1" class="node">
<title>x_1</title>
<polygon fill="lightgray" stroke="black" points="30,-169.2 0,-169.2 0,-151.2 30,-151.2 30,-169.2"/>
<text text-anchor="middle" x="15" y="-158" font-family="Times,serif" font-size="9.00">x_1</text>
</g>
<!-- 1 -->
<g id="node4" class="node">
<title>1</title>
<ellipse fill="white" stroke="black" cx="15" cy="-100.35" rx="14.7" ry="14.7"/>
<text text-anchor="middle" x="15" y="-98.15" font-family="Times,serif" font-size="9.00">1</text>
</g>
<!-- x_1&#45;&gt;1 -->
<g id="edge1" class="edge">
<title>x_1&#45;&gt;1</title>
<path fill="none" stroke="green" stroke-width="0.16" d="M15,-151.15C15,-144.55 15,-134.83 15,-125.73"/>
<polygon fill="green" stroke="green" stroke-width="0.16" points="18.5,-125.55 15,-115.55 11.5,-125.55 18.5,-125.55"/>
</g>
<!-- 2 -->
<g id="node5" class="node">
<title>2</title>
<ellipse fill="white" stroke="black" cx="63" cy="-100.35" rx="14.7" ry="14.7"/>
<text text-anchor="middle" x="63" y="-98.15" font-family="Times,serif" font-size="9.00">2</text>
</g>
<!-- x_1&#45;&gt;2 -->
<g id="edge2" class="edge">
<title>x_1&#45;&gt;2</title>
<path fill="none" stroke="red" stroke-width="0.27" d="M21.67,-151.15C28.26,-143.22 38.57,-130.79 47.25,-120.33"/>
<polygon fill="red" stroke="red" stroke-width="0.27" points="50.06,-122.42 53.75,-112.49 44.67,-117.95 50.06,-122.42"/>
</g>
<!-- x_2 -->
<g id="node2" class="node">
<title>x_2</title>
<polygon fill="lightgray" stroke="black" points="78,-169.2 48,-169.2 48,-151.2 78,-151.2 78,-169.2"/>
<text text-anchor="middle" x="63" y="-158" font-family="Times,serif" font-size="9.00">x_2</text>
</g>
<!-- x_2&#45;&gt;1 -->
<g id="edge3" class="edge">
<title>x_2&#45;&gt;1</title>
<path fill="none" stroke="red" stroke-width="0.37" d="M56.33,-151.15C49.74,-143.22 39.43,-130.79 30.75,-120.33"/>
<polygon fill="red" stroke="red" stroke-width="0.37" points="33.33,-117.95 24.25,-112.49 27.94,-122.42 33.33,-117.95"/>
</g>
<!-- x_2&#45;&gt;2 -->
<g id="edge4" class="edge">
<title>x_2&#45;&gt;2</title>
<path fill="none" stroke="red" stroke-width="0.15" d="M63,-151.15C63,-144.55 63,-134.83 63,-125.73"/>
<polygon fill="red" stroke="red" stroke-width="0.15" points="66.5,-125.55 63,-115.55 59.5,-125.55 66.5,-125.55"/>
</g>
<!-- act_1 -->
<g id="node3" class="node">
<title>act_1</title>
<ellipse fill="lightblue" stroke="black" cx="39" cy="-24.75" rx="25" ry="25"/>
<text text-anchor="middle" x="39" y="-22.55" font-family="Times,serif" font-size="9.00">act_1</text>
</g>
<!-- 1&#45;&gt;act_1 -->
<g id="edge5" class="edge">
<title>1&#45;&gt;act_1</title>
<path fill="none" stroke="red" stroke-width="0.21" d="M19.4,-85.85C21.96,-78 25.3,-67.76 28.5,-57.96"/>
<polygon fill="red" stroke="red" stroke-width="0.21" points="31.84,-59 31.61,-48.41 25.18,-56.83 31.84,-59"/>
</g>
<!-- 2&#45;&gt;act_1 -->
<g id="edge6" class="edge">
<title>2&#45;&gt;act_1</title>
<path fill="none" stroke="red" stroke-width="0.26" d="M58.6,-85.85C56.04,-78 52.7,-67.76 49.5,-57.96"/>
<polygon fill="red" stroke="red" stroke-width="0.26" points="52.82,-56.83 46.39,-48.41 46.16,-59 52.82,-56.83"/>
</g>
</g>
</svg>
