<?xml version="1.0" encoding="UTF-8" standalone="no"?>
<!DOCTYPE svg PUBLIC "-//W3C//DTD SVG 1.1//EN"
 "http://www.w3.org/Graphics/SVG/1.1/DTD/svg11.dtd">
<!-- Generated by graphviz version 2.47.0 (20210316.0004)
 -->
<!-- Pages: 1 -->
<svg width="86pt" height="177pt"
 viewBox="0.00 0.00 86.00 177.20" xmlns="http://www.w3.org/2000/svg" xmlns:xlink="http://www.w3.org/1999/xlink">
<g id="graph0" class="graph" transform="scale(1 1) rotate(0) translate(4 173.2)">
<polygon fill="white" stroke="transparent" points="-4,4 -4,-173.2 82,-173.2 82,4 -4,4"/>
<!-- x_1 -->
<g id="node1" class="node">
<title>x_1</title>
<polygon fill="lightgray" stroke="black" points="30,-169.2 0,-169.2 0,-151.2 30,-151.2 30,-169.2"/>
<text text-anchor="middle" x="15" y="-158" font-family="Times,serif" font-size="9.00">x_1</text>
</g>
<!-- 1 -->
<g id="node4" class="node">
<title>1</title>
<ellipse fill="white" stroke="black" cx="39" cy="-100.35" rx="14.7" ry="14.7"/>
<text text-anchor="middle" x="39" y="-98.15" font-family="Times,serif" font-size="9.00">1</text>
</g>
<!-- x_1&#45;&gt;1 -->
<g id="edge1" class="edge">
<title>x_1&#45;&gt;1</title>
<path fill="none" stroke="green" stroke-width="0.17" d="M18.34,-151.15C21.28,-144.06 25.72,-133.37 29.72,-123.71"/>
<polygon fill="green" stroke="green" stroke-width="0.17" points="33.06,-124.79 33.66,-114.21 26.6,-122.11 33.06,-124.79"/>
</g>
<!-- x_2 -->
<g id="node2" class="node">
<title>x_2</title>
<polygon fill="lightgray" stroke="black" points="78,-169.2 48,-169.2 48,-151.2 78,-151.2 78,-169.2"/>
<text text-anchor="middle" x="63" y="-158" font-family="Times,serif" font-size="9.00">x_2</text>
</g>
<!-- x_2&#45;&gt;1 -->
<g id="edge2" class="edge">
<title>x_2&#45;&gt;1</title>
<path fill="none" stroke="red" stroke-width="0.29" d="M59.66,-151.15C56.72,-144.06 52.28,-133.37 48.28,-123.71"/>
<polygon fill="red" stroke="red" stroke-width="0.29" points="51.4,-122.11 44.34,-114.21 44.94,-124.79 51.4,-122.11"/>
</g>
<!-- act_1 -->
<g id="node3" class="node">
<title>act_1</title>
<ellipse fill="lightblue" stroke="black" cx="39" cy="-24.75" rx="25" ry="25"/>
<text text-anchor="middle" x="39" y="-22.55" font-family="Times,serif" font-size="9.00">act_1</text>
</g>
<!-- 1&#45;&gt;act_1 -->
<g id="edge3" class="edge">
<title>1&#45;&gt;act_1</title>
<path fill="none" stroke="red" stroke-width="0.21" d="M39,-85.16C39,-77.95 39,-68.86 39,-59.97"/>
<polygon fill="red" stroke="red" stroke-width="0.21" points="42.5,-59.75 39,-49.75 35.5,-59.75 42.5,-59.75"/>
</g>
</g>
</svg>
