<?xml version="1.0" encoding="UTF-8" standalone="no"?>
<!DOCTYPE svg PUBLIC "-//W3C//DTD SVG 1.1//EN"
 "http://www.w3.org/Graphics/SVG/1.1/DTD/svg11.dtd">
<!-- Generated by graphviz version 2.47.0 (20210316.0004)
 -->
<!-- Pages: 1 -->
<svg width="230pt" height="177pt"
 viewBox="0.00 0.00 229.70 177.20" xmlns="http://www.w3.org/2000/svg" xmlns:xlink="http://www.w3.org/1999/xlink">
<g id="graph0" class="graph" transform="scale(1 1) rotate(0) translate(4 173.2)">
<polygon fill="white" stroke="transparent" points="-4,4 -4,-173.2 225.7,-173.2 225.7,4 -4,4"/>
<!-- x_1 -->
<g id="node1" class="node">
<title>x_1</title>
<polygon fill="lightgray" stroke="black" points="101.85,-169.2 71.85,-169.2 71.85,-151.2 101.85,-151.2 101.85,-169.2"/>
<text text-anchor="middle" x="86.85" y="-158" font-family="Times,serif" font-size="9.00">x_1</text>
</g>
<!-- 1 -->
<g id="node4" class="node">
<title>1</title>
<ellipse fill="white" stroke="black" cx="206.85" cy="-100.35" rx="14.7" ry="14.7"/>
<text text-anchor="middle" x="206.85" y="-98.15" font-family="Times,serif" font-size="9.00">1</text>
</g>
<!-- x_1&#45;&gt;1 -->
<g id="edge1" class="edge">
<title>x_1&#45;&gt;1</title>
<path fill="none" stroke="green" stroke-width="0.27" d="M102.02,-152.77C121.12,-144.55 154.83,-129.66 182.85,-115.2 183.67,-114.77 184.51,-114.33 185.35,-113.88"/>
<polygon fill="green" stroke="green" stroke-width="0.27" points="187.24,-116.83 194.27,-108.9 183.83,-110.72 187.24,-116.83"/>
</g>
<!-- 2 -->
<g id="node5" class="node">
<title>2</title>
<ellipse fill="white" stroke="black" cx="14.85" cy="-100.35" rx="14.7" ry="14.7"/>
<text text-anchor="middle" x="14.85" y="-98.15" font-family="Times,serif" font-size="9.00">2</text>
</g>
<!-- x_1&#45;&gt;2 -->
<g id="edge2" class="edge">
<title>x_1&#45;&gt;2</title>
<path fill="none" stroke="red" stroke-width="0.22" d="M76.84,-151.15C65.83,-142.31 47.88,-127.89 34.12,-116.83"/>
<polygon fill="red" stroke="red" stroke-width="0.22" points="36.19,-114 26.2,-110.47 31.8,-119.46 36.19,-114"/>
</g>
<!-- 3 -->
<g id="node6" class="node">
<title>3</title>
<ellipse fill="white" stroke="black" cx="62.85" cy="-100.35" rx="14.7" ry="14.7"/>
<text text-anchor="middle" x="62.85" y="-98.15" font-family="Times,serif" font-size="9.00">3</text>
</g>
<!-- x_1&#45;&gt;3 -->
<g id="edge3" class="edge">
<title>x_1&#45;&gt;3</title>
<path fill="none" stroke="red" stroke-width="0.18" d="M83.51,-151.15C80.57,-144.06 76.13,-133.37 72.13,-123.71"/>
<polygon fill="red" stroke="red" stroke-width="0.18" points="75.25,-122.11 68.19,-114.21 68.79,-124.79 75.25,-122.11"/>
</g>
<!-- 4 -->
<g id="node7" class="node">
<title>4</title>
<ellipse fill="white" stroke="black" cx="110.85" cy="-100.35" rx="14.7" ry="14.7"/>
<text text-anchor="middle" x="110.85" y="-98.15" font-family="Times,serif" font-size="9.00">4</text>
</g>
<!-- x_1&#45;&gt;4 -->
<g id="edge4" class="edge">
<title>x_1&#45;&gt;4</title>
<path fill="none" stroke="red" stroke-width="0.2" d="M90.19,-151.15C93.13,-144.06 97.56,-133.37 101.57,-123.71"/>
<polygon fill="red" stroke="red" stroke-width="0.2" points="104.91,-124.79 105.51,-114.21 98.45,-122.11 104.91,-124.79"/>
</g>
<!-- 5 -->
<g id="node8" class="node">
<title>5</title>
<ellipse fill="white" stroke="black" cx="158.85" cy="-100.35" rx="14.7" ry="14.7"/>
<text text-anchor="middle" x="158.85" y="-98.15" font-family="Times,serif" font-size="9.00">5</text>
</g>
<!-- x_1&#45;&gt;5 -->
<g id="edge5" class="edge">
<title>x_1&#45;&gt;5</title>
<path fill="none" stroke="red" stroke-width="0.38" d="M96.86,-151.15C107.87,-142.31 125.82,-127.89 139.57,-116.83"/>
<polygon fill="red" stroke="red" stroke-width="0.38" points="141.9,-119.46 147.5,-110.47 137.51,-114 141.9,-119.46"/>
</g>
<!-- x_2 -->
<g id="node2" class="node">
<title>x_2</title>
<polygon fill="lightgray" stroke="black" points="149.85,-169.2 119.85,-169.2 119.85,-151.2 149.85,-151.2 149.85,-169.2"/>
<text text-anchor="middle" x="134.85" y="-158" font-family="Times,serif" font-size="9.00">x_2</text>
</g>
<!-- x_2&#45;&gt;1 -->
<g id="edge6" class="edge">
<title>x_2&#45;&gt;1</title>
<path fill="none" stroke="red" stroke-width="0.17" d="M144.86,-151.15C155.87,-142.31 173.82,-127.89 187.57,-116.83"/>
<polygon fill="red" stroke="red" stroke-width="0.17" points="189.9,-119.46 195.5,-110.47 185.51,-114 189.9,-119.46"/>
</g>
<!-- x_2&#45;&gt;2 -->
<g id="edge7" class="edge">
<title>x_2&#45;&gt;2</title>
<path fill="none" stroke="red" stroke-width="0.35" d="M119.67,-152.77C100.57,-144.55 66.87,-129.66 38.85,-115.2 38.03,-114.77 37.19,-114.33 36.35,-113.88"/>
<polygon fill="red" stroke="red" stroke-width="0.35" points="37.87,-110.72 27.43,-108.9 34.46,-116.83 37.87,-110.72"/>
</g>
<!-- x_2&#45;&gt;3 -->
<g id="edge8" class="edge">
<title>x_2&#45;&gt;3</title>
<path fill="none" stroke="green" stroke-width="0.19" d="M124.84,-151.15C113.83,-142.31 95.88,-127.89 82.12,-116.83"/>
<polygon fill="green" stroke="green" stroke-width="0.19" points="84.19,-114 74.2,-110.47 79.8,-119.46 84.19,-114"/>
</g>
<!-- x_2&#45;&gt;4 -->
<g id="edge9" class="edge">
<title>x_2&#45;&gt;4</title>
<path fill="none" stroke="green" stroke-width="0.24" d="M131.51,-151.15C128.57,-144.06 124.13,-133.37 120.13,-123.71"/>
<polygon fill="green" stroke="green" stroke-width="0.24" points="123.25,-122.11 116.19,-114.21 116.79,-124.79 123.25,-122.11"/>
</g>
<!-- x_2&#45;&gt;5 -->
<g id="edge10" class="edge">
<title>x_2&#45;&gt;5</title>
<path fill="none" stroke="green" stroke-width="0.17" d="M138.19,-151.15C141.13,-144.06 145.56,-133.37 149.57,-123.71"/>
<polygon fill="green" stroke="green" stroke-width="0.17" points="152.91,-124.79 153.51,-114.21 146.45,-122.11 152.91,-124.79"/>
</g>
<!-- act_1 -->
<g id="node3" class="node">
<title>act_1</title>
<ellipse fill="lightblue" stroke="black" cx="110.85" cy="-24.75" rx="25" ry="25"/>
<text text-anchor="middle" x="110.85" y="-22.55" font-family="Times,serif" font-size="9.00">act_1</text>
</g>
<!-- 1&#45;&gt;act_1 -->
<g id="edge11" class="edge">
<title>1&#45;&gt;act_1</title>
<path fill="none" stroke="red" stroke-width="0.21" d="M195.46,-90.62C181.44,-79.87 157.17,-61.26 138.21,-46.72"/>
<polygon fill="red" stroke="red" stroke-width="0.21" points="140.25,-43.88 130.19,-40.57 135.99,-49.44 140.25,-43.88"/>
</g>
<!-- 2&#45;&gt;act_1 -->
<g id="edge12" class="edge">
<title>2&#45;&gt;act_1</title>
<path fill="none" stroke="green" stroke-width="0.57" d="M26.24,-90.62C40.26,-79.87 64.53,-61.26 83.49,-46.72"/>
<polygon fill="green" stroke="green" stroke-width="0.57" points="85.71,-49.44 91.51,-40.57 81.45,-43.88 85.71,-49.44"/>
</g>
<!-- 3&#45;&gt;act_1 -->
<g id="edge13" class="edge">
<title>3&#45;&gt;act_1</title>
<path fill="none" stroke="green" stroke-width="0.22" d="M70.56,-87.52C76.39,-78.59 84.65,-65.93 92.17,-54.39"/>
<polygon fill="green" stroke="green" stroke-width="0.22" points="95.19,-56.16 97.72,-45.87 89.33,-52.34 95.19,-56.16"/>
</g>
<!-- 4&#45;&gt;act_1 -->
<g id="edge14" class="edge">
<title>4&#45;&gt;act_1</title>
<path fill="none" stroke="red" stroke-width="0.26" d="M110.85,-85.16C110.85,-77.95 110.85,-68.86 110.85,-59.97"/>
<polygon fill="red" stroke="red" stroke-width="0.26" points="114.35,-59.75 110.85,-49.75 107.35,-59.75 114.35,-59.75"/>
</g>
<!-- 5&#45;&gt;act_1 -->
<g id="edge15" class="edge">
<title>5&#45;&gt;act_1</title>
<path fill="none" stroke="red" stroke-width="0.38" d="M151.14,-87.52C145.31,-78.59 137.05,-65.93 129.53,-54.39"/>
<polygon fill="red" stroke="red" stroke-width="0.38" points="132.37,-52.34 123.98,-45.87 126.51,-56.16 132.37,-52.34"/>
</g>
</g>
</svg>
